<?xml version="1.0" encoding="UTF-8"?>
<svg width="56px" height="62px" viewBox="0 0 56 62" version="1.1" xmlns="http://www.w3.org/2000/svg" xmlns:xlink="http://www.w3.org/1999/xlink">
    <!-- Generator: Sketch 43.2 (39069) - http://www.bohemiancoding.com/sketch -->
    <title>Group</title>
    <desc>Created with Sketch.</desc>
    <defs></defs>
    <g id="Page-1" stroke="none" stroke-width="1" fill="none" fill-rule="evenodd">
        <g id="noun_1110088_cc" fill-rule="nonzero" fill="#000000">
            <g id="Group">
                <path d="M45.173,7.754 C43.054,7.754 41.329,9.478 41.329,11.598 C41.329,12.308 41.523,12.974 41.861,13.546 L36.167,19.491 C35.616,19.185 34.983,19.011 34.309,19.011 C33.208,19.011 32.214,19.476 31.513,20.22 L28.011,17.954 C28.09,17.648 28.131,17.328 28.131,16.998 C28.131,14.879 26.406,13.154 24.287,13.154 C22.167,13.154 20.443,14.879 20.443,16.998 C20.443,17.512 20.544,18.003 20.728,18.45 L12.731,26.315 C12.169,25.992 11.518,25.809 10.826,25.809 C8.707,25.809 6.982,27.534 6.982,29.653 C6.982,31.772 8.707,33.497 10.826,33.497 C12.945,33.497 14.67,31.772 14.67,29.653 C14.67,28.984 14.498,28.353 14.195,27.804 L22.025,20.104 C22.66,20.568 23.441,20.842 24.286,20.842 C25.322,20.842 26.265,20.429 26.957,19.76 L30.542,22.081 C30.49,22.332 30.463,22.591 30.463,22.856 C30.463,24.975 32.188,26.7 34.307,26.7 C36.426,26.7 38.151,24.975 38.151,22.856 C38.151,22.167 37.969,21.521 37.65,20.961 L43.367,14.992 C43.905,15.279 44.519,15.442 45.17,15.442 C47.289,15.442 49.014,13.717 49.014,11.598 C49.018,9.478 47.293,7.754 45.173,7.754 Z M10.827,30.991 C10.09,30.991 9.49,30.391 9.49,29.654 C9.49,28.963 10.017,28.392 10.691,28.324 C10.735,28.32 10.781,28.317 10.827,28.317 C11.564,28.317 12.164,28.917 12.164,29.654 C12.164,29.708 12.161,29.762 12.154,29.814 C12.075,30.476 11.509,30.991 10.827,30.991 Z M24.288,18.336 C24.148,18.336 24.014,18.314 23.888,18.275 C23.346,18.105 22.951,17.597 22.951,16.999 C22.951,16.262 23.55,15.662 24.288,15.662 C24.358,15.662 24.427,15.667 24.494,15.677 L24.495,15.678 C24.876,15.737 25.205,15.959 25.408,16.269 C25.546,16.479 25.626,16.73 25.626,16.999 C25.626,17.603 25.223,18.115 24.672,18.28 C24.549,18.316 24.421,18.336 24.288,18.336 Z M35.627,23.076 C35.538,23.618 35.12,24.052 34.585,24.164 C34.496,24.183 34.404,24.193 34.309,24.193 C33.572,24.193 32.972,23.593 32.972,22.856 C32.972,22.327 33.28,21.87 33.726,21.653 C33.877,21.579 34.045,21.533 34.222,21.522 C34.25,21.519 34.28,21.519 34.309,21.519 C35.046,21.519 35.646,22.118 35.646,22.856 C35.647,22.93 35.641,23.004 35.627,23.076 L35.627,23.076 Z M45.351,12.924 C45.293,12.932 45.233,12.936 45.173,12.936 C44.436,12.936 43.836,12.336 43.836,11.599 C43.836,11.558 43.838,11.518 43.842,11.479 C43.903,10.798 44.477,10.262 45.173,10.262 C45.91,10.262 46.51,10.862 46.51,11.599 C46.511,12.275 46.005,12.836 45.351,12.924 Z" id="Shape"></path>
                <path d="M52.767,0.463 L3.233,0.463 C1.884,0.463 0.79,1.557 0.79,2.906 L0.79,41.489 C0.79,42.838 1.884,43.932 3.233,43.932 L22.566,43.932 L15.455,58.107 C14.77,59.104 15.023,60.468 16.02,61.153 C17.017,61.838 18.381,61.585 19.065,60.587 L25.809,46.946 L25.809,57.339 C25.809,58.549 26.79,59.529 27.999,59.529 C29.209,59.529 30.189,58.548 30.189,57.339 L30.189,46.946 L37.102,60.587 C37.527,61.205 38.212,61.538 38.909,61.538 C39.336,61.538 39.768,61.413 40.147,61.153 C41.144,60.468 41.397,59.105 40.712,58.107 L33.432,43.932 L52.765,43.932 C54.114,43.932 55.208,42.838 55.208,41.489 L55.208,2.906 C55.21,1.557 54.116,0.463 52.767,0.463 Z M52.177,37.63 L3.823,37.63 L3.823,3.057 L52.178,3.057 L52.178,37.63 L52.177,37.63 Z" id="Shape"></path>
            </g>
        </g>
    </g>
</svg>