<?xml version="1.0" encoding="UTF-8"?>
<svg width="62px" height="38px" viewBox="0 0 62 38" version="1.1" xmlns="http://www.w3.org/2000/svg" xmlns:xlink="http://www.w3.org/1999/xlink">
    <!-- Generator: Sketch 43.2 (39069) - http://www.bohemiancoding.com/sketch -->
    <title>Group</title>
    <desc>Created with Sketch.</desc>
    <defs></defs>
    <g id="Page-1" stroke="none" stroke-width="1" fill="none" fill-rule="evenodd">
        <g id="noun_1063968_cc" fill-rule="nonzero" fill="#000000">
            <g id="Group">
                <g transform="translate(11.000000, 6.000000)">
                    <g transform="translate(27.000000, 0.000000)">
                        <circle id="Oval" cx="6.473" cy="3.128" r="2.385"></circle>
                        <path d="M0.397,11.981 L2.741,15.522 C2.893,15.751 3.131,15.888 3.383,15.918 L3.383,26.226 C3.383,26.806 3.853,27.277 4.434,27.277 L4.434,27.277 C4.973,27.277 5.425,26.869 5.479,26.333 L6.156,18.532 C6.156,18.36 6.328,18.216 6.501,18.216 C6.674,18.216 6.817,18.36 6.846,18.532 L7.402,26.314 C7.448,26.858 7.903,27.277 8.449,27.277 L8.596,27.277 C9.176,27.277 9.647,26.807 9.647,26.226 L9.647,15.926 C9.938,15.918 10.22,15.771 10.386,15.505 L12.637,11.903 C12.821,11.608 12.819,11.233 12.631,10.941 L10.38,7.442 C10.38,7.442 9.656,6.86 8.018,6.478 L6.97,9.026 L6.793,7.532 L7.187,6.938 C7.262,6.807 7.244,6.639 7.132,6.526 C7.066,6.459 6.973,6.427 6.879,6.427 L6.142,6.427 C6.048,6.427 5.955,6.46 5.888,6.526 C5.776,6.639 5.757,6.807 5.833,6.938 L6.227,7.532 L6.05,9.025 L4.984,6.434 C3.185,6.8 2.534,7.463 2.534,7.463 L0.376,11.02 C0.198,11.316 0.205,11.691 0.397,11.981 Z M9.649,9.624 L10.814,11.434 L9.649,13.297 L9.649,9.624 Z M2.209,11.464 L3.373,9.544 L3.373,11.209 C3.38,11.235 3.384,11.261 3.384,11.289 L3.384,13.238 L2.209,11.464 Z" id="Shape"></path>
                    </g>
                    <g>
                        <circle id="Oval" cx="6.451" cy="3.128" r="2.385"></circle>
                        <path d="M0.375,11.981 L2.719,15.522 C2.871,15.751 3.109,15.888 3.361,15.918 L3.361,26.226 C3.361,26.806 3.831,27.277 4.412,27.277 L4.412,27.277 C4.951,27.277 5.403,26.869 5.457,26.333 L6.134,18.532 C6.134,18.36 6.306,18.216 6.479,18.216 C6.651,18.216 6.795,18.36 6.824,18.532 L7.38,26.314 C7.426,26.858 7.881,27.277 8.427,27.277 L8.574,27.277 C9.154,27.277 9.625,26.807 9.625,26.226 L9.625,15.926 C9.916,15.918 10.198,15.771 10.364,15.505 L12.615,11.903 C12.799,11.608 12.797,11.233 12.609,10.941 L10.358,7.442 C10.358,7.442 9.634,6.86 7.996,6.478 L6.948,9.026 L6.771,7.532 L7.165,6.938 C7.24,6.807 7.222,6.639 7.11,6.526 C7.044,6.459 6.951,6.427 6.857,6.427 L6.12,6.427 C6.026,6.427 5.933,6.46 5.867,6.526 C5.755,6.639 5.736,6.807 5.812,6.938 L6.206,7.532 L6.029,9.025 L4.963,6.434 C3.164,6.8 2.513,7.463 2.513,7.463 L0.355,11.02 C0.175,11.316 0.183,11.691 0.375,11.981 Z M9.626,9.624 L10.791,11.434 L9.626,13.297 L9.626,9.624 Z M2.187,11.464 L3.351,9.544 L3.351,11.209 C3.358,11.235 3.362,11.261 3.362,11.289 L3.362,13.238 L2.187,11.464 Z" id="Shape"></path>
                    </g>
                </g>
                <g>
                    <g transform="translate(48.000000, 0.000000)">
                        <circle id="Oval" cx="6.886" cy="2.428" r="2.385"></circle>
                        <path d="M0.809,11.281 L3.153,14.822 C3.305,15.051 3.543,15.188 3.795,15.218 L3.795,25.526 C3.795,26.106 4.265,26.577 4.846,26.577 L4.846,26.577 C5.385,26.577 5.837,26.169 5.891,25.633 L6.568,17.832 C6.568,17.66 6.74,17.516 6.913,17.516 C7.086,17.516 7.229,17.66 7.258,17.832 L7.814,25.614 C7.86,26.158 8.315,26.577 8.861,26.577 L9.008,26.577 C9.588,26.577 10.059,26.107 10.059,25.526 L10.059,15.226 C10.35,15.218 10.632,15.071 10.798,14.805 L13.049,11.203 C13.233,10.908 13.231,10.533 13.043,10.241 L10.792,6.742 C10.792,6.742 10.068,6.16 8.43,5.778 L7.382,8.326 L7.205,6.832 L7.599,6.238 C7.674,6.107 7.656,5.939 7.544,5.826 C7.478,5.759 7.385,5.727 7.291,5.727 L6.554,5.727 C6.46,5.727 6.367,5.76 6.3,5.826 C6.188,5.939 6.169,6.107 6.245,6.238 L6.639,6.832 L6.462,8.325 L5.396,5.734 C3.597,6.1 2.946,6.763 2.946,6.763 L0.788,10.32 C0.61,10.616 0.618,10.991 0.809,11.281 Z M10.061,8.924 L11.226,10.734 L10.061,12.597 L10.061,8.924 Z M2.621,10.764 L3.785,8.844 L3.785,10.509 C3.792,10.535 3.796,10.561 3.796,10.589 L3.796,12.538 L2.621,10.764 Z" id="Shape"></path>
                    </g>
                    <g>
                        <circle id="Oval" cx="7.039" cy="2.428" r="2.385"></circle>
                        <path d="M0.963,11.281 L3.307,14.822 C3.459,15.051 3.697,15.188 3.949,15.218 L3.949,25.526 C3.949,26.106 4.419,26.577 5,26.577 L5,26.577 C5.539,26.577 5.991,26.169 6.045,25.633 L6.722,17.832 C6.722,17.66 6.894,17.516 7.067,17.516 C7.239,17.516 7.383,17.66 7.412,17.832 L7.968,25.614 C8.014,26.158 8.469,26.577 9.015,26.577 L9.162,26.577 C9.742,26.577 10.213,26.107 10.213,25.526 L10.213,15.226 C10.504,15.218 10.786,15.071 10.952,14.805 L13.203,11.203 C13.387,10.908 13.385,10.533 13.197,10.241 L10.946,6.742 C10.946,6.742 10.222,6.16 8.584,5.778 L7.536,8.326 L7.36,6.831 L7.754,6.237 C7.829,6.106 7.811,5.938 7.699,5.825 C7.633,5.758 7.54,5.726 7.446,5.726 L6.708,5.726 C6.614,5.726 6.521,5.759 6.454,5.825 C6.342,5.938 6.323,6.106 6.399,6.237 L6.793,6.831 L6.616,8.324 L5.55,5.733 C3.751,6.099 3.1,6.762 3.1,6.762 L0.942,10.319 C0.763,10.616 0.771,10.991 0.963,11.281 Z M10.214,8.924 L11.379,10.734 L10.214,12.597 L10.214,8.924 L10.214,8.924 Z M2.775,10.764 L3.939,8.844 L3.939,10.509 C3.946,10.535 3.95,10.561 3.95,10.589 L3.95,12.538 L2.775,10.764 Z" id="Shape"></path>
                    </g>
                </g>
                <g transform="translate(24.000000, 11.000000)">
                    <circle id="Oval" cx="7.591" cy="2.809" r="2.385"></circle>
                    <path d="M4.491,9.225 L4.491,10.89 C4.499,10.916 4.501,10.942 4.501,10.969 L4.501,12.918 L4.491,12.903 L4.491,15.597 C4.495,15.597 4.497,15.598 4.501,15.598 L4.501,25.905 C4.501,26.195 4.618,26.458 4.809,26.649 C4.999,26.839 5.262,26.957 5.553,26.957 C6.092,26.957 6.543,26.549 6.598,26.013 L7.274,18.213 C7.274,18.039 7.448,17.897 7.62,17.897 C7.792,17.897 7.935,18.04 7.965,18.213 L8.521,25.994 C8.567,26.539 9.021,26.958 9.567,26.958 L9.715,26.958 C10.295,26.958 10.765,26.488 10.765,25.908 L10.765,15.608 C11.056,15.6 11.338,15.452 11.504,15.187 L13.755,11.586 C13.939,11.29 13.936,10.916 13.749,10.624 L11.498,7.125 C11.498,7.125 10.774,6.543 9.136,6.161 L8.088,8.708 L7.912,7.214 L8.305,6.621 C8.384,6.484 8.361,6.306 8.235,6.193 C8.171,6.135 8.084,6.109 7.997,6.109 L7.259,6.109 C7.166,6.109 7.071,6.141 7.006,6.209 C6.894,6.321 6.875,6.49 6.951,6.621 L7.344,7.214 L7.168,8.707 L6.101,6.116 C5.946,6.148 5.799,6.181 5.661,6.217 C4.664,6.472 3.613,6.416 2.652,6.047 L2.531,6 L1.951,3.432 C1.762,2.928 1.193,2.677 0.692,2.882 C0.207,3.081 -0.011,3.65 0.173,4.141 L0.925,7.421 C1.041,7.729 1.306,7.956 1.628,8.022 L4.037,8.601 C4.049,8.605 4.061,8.609 4.074,8.611 C4.074,8.611 4.483,8.649 4.491,9.225 Z M10.766,9.304 L11.931,11.114 L10.766,12.977 L10.766,9.304 Z" id="Shape"></path>
                </g>
            </g>
        </g>
    </g>
</svg>