<?xml version="1.0" encoding="UTF-8"?>
<svg width="58px" height="38px" viewBox="0 0 58 38" version="1.1" xmlns="http://www.w3.org/2000/svg" xmlns:xlink="http://www.w3.org/1999/xlink">
    <!-- Generator: Sketch 43.2 (39069) - http://www.bohemiancoding.com/sketch -->
    <title>Group</title>
    <desc>Created with Sketch.</desc>
    <defs></defs>
    <g id="Page-1" stroke="none" stroke-width="1" fill="none" fill-rule="evenodd">
        <g id="noun_898213_cc" fill-rule="nonzero" fill="#000000">
            <g id="Group">
                <g transform="translate(16.000000, 0.000000)" id="Shape">
                    <g transform="translate(0.000000, 9.000000)">
                        <path d="M2.813,18.893 C2.793,18.197 1.87,17.596 1.341,18.018 C0.853,18.408 0.425,18.962 0.172,19.534 C-0.096,20.139 0.372,20.706 0.984,20.724 C1.734,20.748 2.835,19.645 2.813,18.893 Z"></path>
                        <path d="M30.796,16.769 C31.594,16.276 32.317,15.831 33.08,15.36 C32.631,14.495 32.187,13.679 31.777,12.846 C30.352,9.953 28.92,7.064 27.536,4.152 C27.207,3.46 26.813,3.143 26.021,2.962 C23.901,2.479 21.822,1.809 19.729,1.202 C18.117,0.735 16.517,0.609 14.917,1.247 C13.967,1.625 13.025,2.041 12.05,2.333 C10.19,2.893 8.702,3.811 7.817,5.661 C7.216,6.918 6.339,8.045 5.521,9.332 C7.673,9.836 9.368,9.328 10.688,7.821 C11.242,7.188 11.857,6.865 12.643,6.735 C13.579,6.579 14.543,6.495 15.435,6.201 C16.588,5.823 16.887,5.899 17.171,7.074 C17.642,9.019 18.753,10.45 20.618,11.191 C21.515,11.548 22.484,11.715 23.416,11.979 C23.694,12.058 24.015,12.111 24.218,12.29 C25.223,13.169 26.193,14.085 27.174,14.988 C28.092,15.831 29.013,16.673 29.96,17.544 C30.12,17.394 30.262,17.258 30.447,17.085 L30.796,16.769 Z"></path>
                        <path d="M3.46,22.851 C3.422,23.822 4.189,24.406 4.967,24.076 C5.885,23.687 6.502,22.97 6.797,22.016 C6.945,21.537 6.784,21.064 6.332,20.856 C5.958,20.684 5.408,20.497 5.101,20.649 C4.169,21.109 3.617,21.936 3.46,22.851 Z"></path>
                        <path d="M9.106,26.682 C8.345,27.098 7.583,26.562 7.69,25.699 C7.792,24.88 8.182,24.165 8.891,23.728 C9.149,23.569 9.614,23.559 9.897,23.682 C9.897,23.682 11.431,24.583 9.106,26.682 Z"></path>
                        <path d="M12.69,28.212 C12.2,28.4 11.706,28.118 11.821,27.615 C11.821,27.615 12.012,25.789 13.277,26.114 C13.869,26.266 14.014,27.704 12.69,28.212 Z"></path>
                    </g>
                    <path d="M27.874,10.335 C30.271,14.502 32.768,20.727 35.154,24.876 C36.904,23.994 38.606,23.122 40.324,22.282 C40.665,22.115 40.771,21.919 40.779,21.55 C40.91,15.429 40.928,7.205 41.071,1.085 C41.074,0.942 41.078,0.799 41.084,0.543 C36.622,3.849 32.26,7.083 27.874,10.335 Z"></path>
                </g>
                <path d="M31.803,17.399 C31.616,17.313 31.43,17.162 31.24,17.156 C30.928,17.147 30.615,17.254 30.3,17.273 C29.237,17.337 28.223,17.483 27.552,18.467 C27.417,18.666 27.185,18.806 26.982,18.951 C25.123,20.287 23.092,20.681 20.911,19.94 C19.713,19.533 19.411,18.758 19.959,17.649 C20.31,16.937 20.738,16.261 21.162,15.589 C22.072,14.146 23.002,12.716 23.913,11.297 C21.685,11.386 19.458,11.465 17.234,11.582 C17.064,11.591 16.823,11.83 16.758,12.013 C16.421,12.952 16.127,13.907 15.824,14.858 C14.867,17.862 13.913,20.867 12.955,23.882 C13.894,24.569 14.807,25.236 15.714,25.898 C17.473,24.436 19.977,25.045 20.636,27.881 C21.605,27.629 22.518,27.743 23.341,28.365 C24.147,28.974 24.599,29.772 24.615,30.807 C26.598,30.59 27.832,31.408 28.348,33.238 C30.307,33.081 31.365,34.028 31.421,35.924 C31.426,36.079 31.507,36.341 31.602,36.366 C32.577,36.62 33.561,36.879 34.656,36.38 C34.355,36.164 34.131,36.016 33.922,35.85 C32.766,34.928 31.603,34.015 30.464,33.072 C29.939,32.638 29.874,32.034 30.242,31.649 C30.611,31.263 31.062,31.316 31.632,31.765 C32.972,32.82 34.295,33.899 35.678,34.895 C36.702,35.632 37.796,35.515 38.846,34.688 C38.673,34.569 38.503,34.467 38.351,34.343 C36.484,32.823 34.61,31.312 32.761,29.77 C32.268,29.359 32.225,28.747 32.559,28.387 C32.941,27.976 33.458,28.031 33.988,28.522 C34.722,29.203 35.418,29.935 36.211,30.538 C37.528,31.54 38.874,32.517 40.284,33.379 C40.772,33.677 41.493,33.707 42.096,33.671 C42.668,33.636 42.917,33.101 43.053,32.563 C43.194,32.006 42.721,31.89 42.421,31.644 C40.242,29.854 38.06,28.069 35.892,26.266 C35.48,25.924 35.329,25.468 35.748,25.018 C36.152,24.585 36.606,24.553 37.07,24.961 C37.839,25.637 38.594,26.331 39.39,26.974 C40.84,28.147 42.302,29.305 43.786,30.434 C44.38,30.886 45.032,30.81 45.456,30.35 C45.905,29.864 45.918,29.189 45.449,28.613 C45.163,28.261 44.843,27.934 44.511,27.623 C43.233,26.427 41.958,25.227 40.655,24.058 C39.928,23.407 39.295,22.69 38.192,22.501 C35.576,22.055 33.424,20.82 32.137,18.363 L31.803,17.399 Z" id="Shape"></path>
                <path d="M10.455,24.939 C12.135,20.439 13.872,13.879 15.548,9.392 C10.674,6.895 5.845,4.421 0.917,1.896 C0.972,2.186 1.003,2.348 1.034,2.51 C1.575,5.358 2.042,10.314 2.584,13.162 C3.186,16.327 3.783,19.493 4.398,22.655 C4.433,22.835 4.575,23.09 4.723,23.138 C6.606,23.75 8.5,24.33 10.455,24.939 Z" id="Shape"></path>
            </g>
        </g>
    </g>
</svg>