<?xml version="1.0" encoding="UTF-8"?>
<svg width="204px" height="44px" viewBox="0 0 204 44" version="1.1" xmlns="http://www.w3.org/2000/svg" xmlns:xlink="http://www.w3.org/1999/xlink">
    <!-- Generator: Sketch 43.2 (39069) - http://www.bohemiancoding.com/sketch -->
    <title>CrowdLending_PMS534</title>
    <desc>Created with Sketch.</desc>
    <defs></defs>
    <g id="Page-1" stroke="none" stroke-width="1" fill="none" fill-rule="evenodd">
        <g id="CrowdLending_PMS534" fill="#112A50">
            <path d="M1.636,34.213 L1.636,42.63 L8.448,42.63 L8.448,40.176 L10.084,40.519 L10.084,41.679 C10.084,43.506 9.57,44 7.801,44 L2.302,44 C0.532,44 0,43.486 0,41.679 L0,35.202 C0,33.395 0.532,32.881 2.302,32.881 L7.801,32.881 C9.57,32.881 10.084,33.376 10.084,35.202 L10.084,36.135 L8.448,36.439 L8.448,34.213 L1.636,34.213" id="Fill-1"></path>
            <path d="M15.037,35.457 L15.037,38.9 L20.669,38.9 C21.392,38.9 21.734,38.73 21.734,37.893 L21.734,36.465 C21.734,35.648 21.392,35.457 20.669,35.457 L15.037,35.457 Z M13.4,34.182 L21.315,34.182 C22.743,34.182 23.39,34.715 23.39,36.085 L23.39,38.273 C23.39,39.643 22.743,40.176 21.315,40.176 L19.87,40.176 L24.36,44 L21.925,44 L17.929,40.176 L15.037,40.176 L15.037,44 L13.4,44 L13.4,34.182 L13.4,34.182 Z" id="Fill-2"></path>
            <path d="M28.398,42.63 L36.523,42.63 L36.523,35.514 L28.398,35.514 L28.398,42.63 Z M29.064,34.182 L35.857,34.182 C37.627,34.182 38.141,34.695 38.141,36.503 L38.141,41.679 C38.141,43.486 37.627,44 35.857,44 L29.064,44 C27.314,44 26.763,43.506 26.763,41.679 L26.763,36.503 C26.763,34.677 27.314,34.182 29.064,34.182 L29.064,34.182 Z" id="Fill-3"></path>
            <polyline id="Fill-4" points="40.182 34.182 41.837 34.182 44.5 41.983 47.393 34.182 48.401 34.182 51.198 41.983 53.881 34.182 55.347 34.182 51.788 44 50.57 44 47.85 36.579 45.033 44 43.739 44 40.182 34.182"></polyline>
            <path d="M59.137,35.514 L59.137,42.63 L62.676,42.63 C65.605,42.63 67.033,41.812 67.033,39.034 C67.033,36.37 65.587,35.514 62.676,35.514 L59.137,35.514 Z M66.671,34.943 C67.927,35.762 68.707,37.283 68.707,39.034 C68.707,40.88 67.946,42.402 66.671,43.239 C65.796,43.81 64.56,44 62.903,44 L57.5,44 L57.5,34.182 L62.903,34.182 C64.56,34.182 65.777,34.372 66.671,34.943 L66.671,34.943 Z" id="Fill-5"></path>
            <polyline id="Fill-6" points="71.871 32.881 73.508 32.881 73.508 42.63 80.947 42.63 80.947 44 71.871 44 71.871 32.881"></polyline>
            <polyline id="Fill-7" points="83.293 34.182 92.75 34.182 92.75 35.495 84.93 35.495 84.93 38.234 89.705 38.234 89.705 39.528 84.93 39.528 84.93 42.649 92.826 42.649 92.826 44 83.293 44 83.293 34.182"></polyline>
            <path d="M95.723,34.182 L96.75,34.182 L104.095,40.746 C104.438,41.051 104.817,41.47 105.218,41.983 C105.065,41.07 105.065,40.271 105.065,39.566 L105.065,34.182 L106.568,34.182 L106.568,44 L105.655,44 L98.101,37.169 C97.815,36.903 97.436,36.617 97.111,36.066 C97.207,36.789 97.226,37.493 97.226,38.216 L97.226,44 L95.723,44 L95.723,34.182" id="Fill-8"></path>
            <path d="M111.301,35.514 L111.301,42.63 L114.84,42.63 C117.77,42.63 119.197,41.812 119.197,39.034 C119.197,36.37 117.751,35.514 114.84,35.514 L111.301,35.514 Z M118.835,34.943 C120.091,35.762 120.871,37.283 120.871,39.034 C120.871,40.88 120.11,42.402 118.835,43.239 C117.96,43.81 116.724,44 115.067,44 L109.664,44 L109.664,34.182 L115.067,34.182 C116.724,34.182 117.941,34.372 118.835,34.943 L118.835,34.943 Z" id="Fill-9"></path>
            <polygon id="Fill-10" points="124.034 44 125.671 44 125.671 34.182 124.034 34.182"></polygon>
            <path d="M129.769,34.182 L130.796,34.182 L138.141,40.746 C138.483,41.051 138.863,41.47 139.264,41.983 C139.111,41.07 139.111,40.271 139.111,39.566 L139.111,34.182 L140.614,34.182 L140.614,44 L139.701,44 L132.146,37.169 C131.861,36.903 131.48,36.617 131.157,36.066 C131.253,36.789 131.271,37.493 131.271,38.216 L131.271,44 L129.769,44 L129.769,34.182" id="Fill-11"></path>
            <path d="M146.213,35.514 L146.213,42.63 L153.9,42.63 L153.9,39.757 L149.924,39.757 L149.924,38.501 L155.537,38.501 L155.537,41.679 C155.537,43.486 155.004,44 153.234,44 L146.879,44 C145.129,44 144.577,43.506 144.577,41.679 L144.577,36.503 C144.577,34.677 145.129,34.182 146.879,34.182 L153.234,34.182 C154.928,34.182 155.537,34.657 155.537,36.389 L155.537,36.637 L153.9,36.96 L153.9,35.514 L146.213,35.514" id="Fill-12"></path>
            <path d="M160.306,42.421 L160.306,43.506 C160.306,44 160.211,44 159.735,44 L158.783,44 L158.594,44 C158.251,44 158.213,43.886 158.213,43.506 L158.213,42.421 C158.213,41.926 158.327,41.907 158.783,41.907 L159.735,41.907 C160.191,41.907 160.306,41.926 160.306,42.421" id="Fill-13"></path>
            <path d="M164.868,35.514 L164.868,42.63 L171.681,42.63 L171.681,40.176 L173.316,40.519 L173.316,41.679 C173.316,43.506 172.803,44 171.033,44 L165.534,44 C163.765,44 163.232,43.486 163.232,41.679 L163.232,36.503 C163.232,34.695 163.765,34.182 165.534,34.182 L171.033,34.182 C172.803,34.182 173.316,34.677 173.316,36.503 L173.316,37.436 L171.681,37.74 L171.681,35.514 L164.868,35.514" id="Fill-14"></path>
            <path d="M178.136,42.63 L186.261,42.63 L186.261,35.514 L178.136,35.514 L178.136,42.63 Z M178.802,34.182 L185.595,34.182 C187.364,34.182 187.878,34.695 187.878,36.503 L187.878,41.679 C187.878,43.486 187.364,44 185.595,44 L178.802,44 C177.052,44 176.5,43.506 176.5,41.679 L176.5,36.503 C176.5,34.677 177.052,34.182 178.802,34.182 L178.802,34.182 Z" id="Fill-15"></path>
            <path d="M193.248,37.379 L193.248,44 L191.859,44 L191.859,34.182 L193.191,34.182 L197.967,40.575 L202.42,34.182 L203.923,34.182 L203.923,44 L202.42,44 L202.42,37.379 C202.42,37.15 202.458,36.655 202.496,35.933 C202.248,36.446 202.059,36.789 201.906,36.998 L198.157,42.459 L197.739,42.459 L193.838,37.15 C193.647,36.884 193.382,36.541 193.172,35.933 C193.248,36.503 193.248,36.998 193.248,37.379" id="Fill-16"></path>
            <path d="M104.691,12.73 L105.921,12.369 L108.211,13.255 L108.211,3.466 L106.218,2.512 L104.744,2.872 L104.691,12.73 Z M110.686,10.256 L110.686,14.36 L112.377,13.46 L114.206,13.861 L114.206,9.617 L112.29,9.194 L110.686,10.256 Z M108.698,13.38 L109.461,13.707 L109.461,14.786 L110.394,14.256 L110.394,10.059 L111.242,9.317 L111.242,5.713 L110.225,5.607 L108.698,6.391 L108.698,13.38 Z M113.456,8.87 L113.467,9.078 L114.54,9.319 L114.54,13.527 L115.096,13.714 L115.096,8.365 L116.341,7.423 L116.341,5.507 L114.779,5.236 L113.456,6.423 L113.456,8.87 Z M114.555,15.407 L114.555,19.622 L114.555,23.833 L115.104,23.833 L115.104,19.674 L115.104,15.512 C114.922,15.477 114.739,15.442 114.555,15.407 Z M115.539,15.595 L115.539,19.716 L115.539,23.833 L116.064,23.833 L116.064,19.766 L116.064,15.696 C115.891,15.663 115.715,15.629 115.539,15.595 Z M116.492,15.778 L116.492,19.807 L116.492,23.833 L116.995,23.833 L116.995,19.855 L116.995,15.874 C116.829,15.842 116.661,15.81 116.492,15.778 Z M113.511,15.207 L113.511,19.522 L113.511,23.833 L114.086,23.833 L114.086,19.577 L114.086,15.318 C113.896,15.281 113.705,15.244 113.511,15.207 Z M121.175,6.748 C121.175,9.627 121.174,12.505 121.174,15.381 L121.174,23.383 L121.469,23.383 L121.469,15.451 L121.469,6.863 C121.372,6.825 121.273,6.786 121.175,6.748 Z M121.792,6.989 L121.792,15.528 L121.792,23.383 L122.081,23.383 L122.081,15.596 C122.08,12.767 122.08,9.934 122.08,7.101 C121.985,7.063 121.888,7.026 121.792,6.989 Z M122.376,7.216 L122.376,15.667 L122.376,23.383 L122.659,23.383 L122.659,15.734 L122.659,7.326 C122.564,7.289 122.47,7.253 122.376,7.216 Z M120.555,6.507 L120.555,15.233 L120.555,23.383 L120.856,23.383 L120.856,15.304 L120.856,6.624 C120.756,6.585 120.655,6.546 120.555,6.507 Z M78.408,23.975 L78.042,23.972 L78.042,24.352 L78.408,24.352 L78.408,23.975 Z M78.408,23.406 L78.042,23.396 L78.042,23.778 L78.408,23.784 L78.408,23.406 Z M78.408,22.837 L78.042,22.821 L78.042,23.203 L78.408,23.214 L78.408,22.837 Z M78.408,22.268 L78.042,22.247 L78.042,22.628 L78.408,22.645 L78.408,22.268 Z M78.408,21.699 L78.042,21.672 L78.042,22.053 L78.408,22.076 L78.408,21.699 Z M78.408,21.129 L78.042,21.097 L78.042,21.478 L78.408,21.507 L78.408,21.129 Z M78.408,20.56 L78.042,20.522 L78.042,20.903 L78.408,20.937 L78.408,20.56 Z M78.408,19.991 L78.042,19.947 L78.042,20.328 L78.408,20.368 L78.408,19.991 Z M78.408,19.422 L78.042,19.372 L78.042,19.753 L78.408,19.799 L78.408,19.422 Z M78.936,18.933 L78.042,18.797 L78.042,19.178 L78.408,19.23 L78.408,19 L78.936,18.933 Z M73.613,24.031 L73.551,24.03 L73.551,24.432 L73.613,24.432 L73.613,24.031 Z M73.613,23.423 L73.551,23.422 L73.551,23.825 L73.613,23.826 L73.613,23.423 Z M73.613,22.815 L73.551,22.812 L73.551,23.216 L73.613,23.218 L73.613,22.815 Z M73.613,22.208 L73.551,22.204 L73.551,22.607 L73.613,22.61 L73.613,22.208 Z M73.613,21.599 L73.551,21.594 L73.551,21.998 L73.613,22.002 L73.613,21.599 Z M73.613,20.991 L73.551,20.985 L73.551,21.389 L73.613,21.395 L73.613,20.991 Z M73.613,20.383 L73.551,20.377 L73.551,20.78 L73.613,20.786 L73.613,20.383 Z M73.613,19.775 L73.551,19.767 L73.551,20.172 L73.613,20.179 L73.613,19.775 Z M73.613,19.168 L73.551,19.159 L73.551,19.562 L73.613,19.571 L73.613,19.168 Z M73.613,18.559 L73.551,18.549 L73.551,18.953 L73.613,18.962 L73.613,18.559 Z M73.615,17.952 L73.551,17.941 L73.551,18.345 L73.613,18.354 L73.613,17.953 L73.615,17.952 Z M74.685,17.542 L73.551,17.332 L73.551,17.735 L73.983,17.811 L74.685,17.542 Z M69.692,23.585 L69.692,23.911 L70.865,23.911 L72.215,23.911 L72.215,23.536 C71.743,23.545 71.293,23.554 70.865,23.562 C70.456,23.57 70.065,23.578 69.692,23.585 Z M69.692,23.091 L69.692,23.419 C70.065,23.408 70.456,23.396 70.865,23.384 C71.293,23.372 71.743,23.359 72.215,23.345 L72.215,22.968 C71.743,22.991 71.293,23.013 70.865,23.034 C70.456,23.054 70.065,23.073 69.692,23.091 Z M69.692,22.597 L69.692,22.924 C70.065,22.902 70.456,22.879 70.865,22.855 C71.293,22.83 71.743,22.803 72.215,22.776 L72.215,22.399 C71.743,22.436 71.293,22.471 70.865,22.505 C70.456,22.537 70.065,22.567 69.692,22.597 Z M69.692,22.103 L69.692,22.431 C70.065,22.398 70.456,22.363 70.865,22.327 C71.293,22.289 71.743,22.249 72.215,22.208 L72.215,21.831 C71.743,21.882 71.293,21.93 70.865,21.977 C70.456,22.021 70.065,22.063 69.692,22.103 Z M69.692,21.608 L69.692,21.936 C70.065,21.892 70.456,21.846 70.865,21.798 C71.293,21.747 71.743,21.694 72.215,21.639 L72.215,21.262 C71.743,21.327 71.293,21.389 70.865,21.447 C70.456,21.503 70.065,21.557 69.692,21.608 Z M69.692,21.114 L69.692,21.442 C70.065,21.387 70.456,21.33 70.865,21.27 C71.293,21.206 71.743,21.14 72.215,21.071 L72.215,20.693 C71.743,20.771 71.293,20.847 70.865,20.918 C70.456,20.986 70.065,21.051 69.692,21.114 Z M69.692,20.62 L69.692,20.948 C70.065,20.882 70.456,20.813 70.865,20.74 C71.293,20.665 71.743,20.585 72.215,20.502 L72.215,20.125 C71.743,20.218 71.293,20.306 70.865,20.39 C70.456,20.47 70.065,20.547 69.692,20.62 Z M69.692,20.126 L69.692,20.454 C70.065,20.377 70.456,20.296 70.865,20.212 C71.293,20.124 71.743,20.031 72.215,19.934 L72.215,19.556 C71.743,19.662 71.293,19.764 70.865,19.861 C70.456,19.953 70.065,20.041 69.692,20.126 Z M69.692,19.632 L69.692,19.959 C70.065,19.871 70.456,19.779 70.865,19.683 C71.293,19.582 71.743,19.476 72.215,19.365 L72.215,18.988 C71.743,19.108 71.293,19.223 70.865,19.333 C70.456,19.437 70.065,19.537 69.692,19.632 Z M69.692,19.137 L69.692,19.465 C70.065,19.366 70.456,19.262 70.865,19.154 C71.293,19.04 71.743,18.921 72.215,18.796 L72.215,18.419 C71.743,18.553 71.293,18.681 70.865,18.803 C70.456,18.92 70.065,19.031 69.692,19.137 Z M69.692,18.644 L69.692,18.971 C70.065,18.861 70.456,18.746 70.865,18.625 C71.293,18.499 71.743,18.367 72.215,18.228 L72.215,17.851 C71.743,17.999 71.293,18.141 70.865,18.275 C70.456,18.403 70.065,18.526 69.692,18.644 Z M69.692,18.149 L69.692,18.477 C70.065,18.356 70.456,18.229 70.865,18.096 C71.293,17.958 71.743,17.812 72.215,17.659 L72.215,17.282 C71.743,17.444 71.293,17.599 70.865,17.746 C70.456,17.886 70.065,18.021 69.692,18.149 Z M69.692,17.655 L69.692,17.983 C70.065,17.851 70.456,17.713 70.865,17.568 C71.293,17.417 71.743,17.258 72.215,17.091 L72.215,16.713 C71.743,16.889 71.293,17.057 70.865,17.217 C70.456,17.369 70.065,17.515 69.692,17.655 Z M69.692,17.161 L69.692,17.488 C70.065,17.345 70.456,17.196 70.865,17.039 C71.293,16.875 71.743,16.703 72.215,16.522 L72.215,16.145 C71.743,16.335 71.293,16.516 70.865,16.689 C70.456,16.853 70.065,17.011 69.692,17.161 Z M69.692,16.666 L69.692,16.995 C70.065,16.841 70.456,16.679 70.865,16.511 C71.293,16.334 71.743,16.149 72.215,15.954 L72.215,15.576 C71.743,15.78 71.293,15.974 70.865,16.159 C70.456,16.336 70.065,16.505 69.692,16.666 Z M69.692,16.173 L69.692,16.5 C70.065,16.335 70.456,16.162 70.865,15.982 C71.293,15.792 71.743,15.593 72.215,15.385 L72.215,15.008 C71.743,15.226 71.293,15.434 70.865,15.631 C70.456,15.82 70.065,16 69.692,16.173 Z M69.692,15.678 L69.692,16.006 C70.065,15.829 70.456,15.645 70.865,15.452 C71.293,15.25 71.743,15.038 72.215,14.816 L72.215,14.439 C71.743,14.671 71.293,14.892 70.865,15.102 C70.456,15.303 70.065,15.495 69.692,15.678 Z M69.692,15.184 L69.692,15.512 C70.065,15.325 70.456,15.129 70.865,14.924 C71.293,14.71 71.743,14.484 72.215,14.248 L72.215,13.871 C71.743,14.117 71.293,14.351 70.865,14.574 C70.456,14.786 70.065,14.99 69.692,15.184 Z M69.692,14.194 L69.692,14.524 C70.065,14.315 70.456,14.096 70.865,13.867 C71.293,13.627 71.743,13.375 72.215,13.111 L72.215,12.732 C71.743,13.006 71.293,13.266 70.865,13.514 C70.456,13.751 70.065,13.978 69.692,14.194 Z M69.692,14.69 L69.692,15.017 C70.065,14.819 70.456,14.612 70.865,14.395 C71.293,14.168 71.743,13.929 72.215,13.679 L72.215,13.302 C71.743,13.562 71.293,13.809 70.865,14.045 C70.456,14.269 70.065,14.484 69.692,14.69 Z M84.022,9.313 C83.805,9.411 83.591,9.507 83.38,9.603 L83.38,11.194 C83.591,11.109 83.805,11.023 84.022,10.936 L84.022,9.313 Z M84.837,10.893 C84.609,10.983 84.384,11.071 84.163,11.159 L84.163,12.787 C84.384,12.711 84.609,12.633 84.837,12.555 L84.837,10.893 Z M84.022,11.214 C83.805,11.299 83.591,11.383 83.38,11.466 L83.38,13.056 C83.591,12.984 83.805,12.91 84.022,12.835 L84.022,11.214 Z M84.837,12.83 C84.609,12.906 84.384,12.982 84.163,13.057 L84.163,14.685 C84.384,14.621 84.609,14.557 84.837,14.492 L84.837,12.83 Z M84.022,13.104 C83.805,13.176 83.591,13.248 83.38,13.319 L83.38,14.91 C83.591,14.849 83.805,14.788 84.022,14.725 L84.022,13.104 Z M84.837,14.774 C84.609,14.838 84.384,14.9 84.163,14.962 L84.163,15.138 L84.837,14.962 L84.837,14.774 Z M84.022,15.001 C83.805,15.061 83.591,15.121 83.38,15.18 L83.38,16.77 L83.485,16.746 L83.485,15.337 L84.022,15.175 L84.022,15.001 Z M82.498,9.999 C82.301,10.089 82.106,10.177 81.912,10.263 L81.912,11.783 C82.106,11.706 82.301,11.627 82.498,11.548 L82.498,9.999 Z M83.239,11.521 C83.032,11.603 82.827,11.683 82.626,11.762 L82.626,13.316 C82.827,13.246 83.032,13.176 83.239,13.105 L83.239,11.521 Z M82.498,11.812 C82.301,11.89 82.105,11.967 81.912,12.043 L81.912,13.561 C82.105,13.495 82.301,13.427 82.498,13.359 L82.498,11.812 Z M83.239,13.367 C83.032,13.436 82.827,13.505 82.626,13.573 L82.626,15.126 C82.827,15.068 83.032,15.009 83.239,14.95 L83.239,13.367 Z M82.498,13.616 C82.301,13.682 82.105,13.747 81.912,13.812 L81.912,15.33 C82.105,15.275 82.301,15.219 82.498,15.163 L82.498,13.616 Z M83.239,15.219 C83.032,15.277 82.827,15.334 82.626,15.39 L82.626,16.943 C82.827,16.897 83.032,16.85 83.239,16.803 L83.239,15.219 Z M82.498,15.426 C82.301,15.481 82.105,15.535 81.912,15.589 L81.912,17.107 C82.105,17.063 82.301,17.018 82.498,16.973 L82.498,15.426 Z M83.485,17.032 L83.38,17.055 L83.38,18.646 L83.485,18.628 L83.485,17.032 Z M83.485,18.899 L83.38,18.916 L83.38,20.506 L83.485,20.494 L83.485,18.899 Z M83.485,20.758 L83.38,20.769 L83.38,22.36 L83.485,22.354 L83.485,20.758 Z M83.485,22.626 L83.38,22.631 L83.38,24.219 L83.485,24.219 L83.485,22.626 Z M82.498,17.25 C82.301,17.294 82.105,17.337 81.912,17.379 L81.912,18.898 C82.105,18.864 82.301,18.831 82.498,18.797 L82.498,17.25 Z M83.239,18.939 C83.032,18.973 82.827,19.006 82.626,19.039 L82.626,20.592 C82.827,20.569 83.032,20.546 83.239,20.522 L83.239,18.939 Z M82.498,19.06 C82.301,19.092 82.105,19.124 81.912,19.156 L81.912,20.674 C82.105,20.652 82.301,20.63 82.498,20.607 L82.498,19.06 Z M83.239,20.784 C83.032,20.806 82.827,20.828 82.626,20.849 L82.626,22.403 C82.827,22.391 83.032,22.379 83.239,22.368 L83.239,20.784 Z M82.498,20.863 C82.301,20.884 82.105,20.905 81.912,20.925 L81.912,22.444 C82.105,22.433 82.301,22.421 82.498,22.41 L82.498,20.863 Z M83.239,22.638 C83.032,22.648 82.827,22.658 82.626,22.668 L82.626,24.219 L83.239,24.219 L83.239,22.638 Z M82.498,22.674 C82.301,22.684 82.105,22.694 81.912,22.703 L81.912,24.219 L82.498,24.219 L82.498,22.674 Z M83.239,17.086 C83.032,17.132 82.827,17.177 82.626,17.222 L82.626,18.775 C82.827,18.74 83.032,18.705 83.239,18.67 L83.239,17.086 Z M83.239,9.666 C83.032,9.759 82.827,9.851 82.626,9.942 L82.626,11.497 C82.827,11.416 83.032,11.334 83.239,11.251 L83.239,9.666 Z M84.837,8.946 C84.609,9.049 84.384,9.15 84.163,9.25 L84.163,10.88 C84.384,10.791 84.609,10.701 84.837,10.609 L84.837,8.946 Z M90.212,12.214 L92.29,12.892 L92.29,5.494 L91.404,4.438 L90.245,4.921 L90.212,12.214 Z M92.406,14.871 L92.375,13.575 L89.204,12.508 L87.14,13.078 L87.14,14.418 L89.248,13.965 L92.406,14.871 Z M85.985,15.672 C85.655,15.736 85.33,15.799 85.009,15.862 C84.693,15.923 84.382,15.984 84.074,16.044 L84.074,17.891 C84.382,17.845 84.693,17.798 85.009,17.75 C85.33,17.701 85.655,17.652 85.985,17.602 L85.985,15.672 Z M88.545,17.562 C88.177,17.615 87.813,17.667 87.455,17.719 C87.103,17.769 86.756,17.82 86.415,17.869 L86.415,19.816 C86.756,19.781 87.103,19.746 87.455,19.711 C87.813,19.675 88.177,19.638 88.545,19.601 L88.545,17.562 Z M85.985,17.931 C85.655,17.978 85.33,18.025 85.009,18.071 C84.693,18.117 84.382,18.162 84.074,18.206 L84.074,20.052 C84.382,20.021 84.693,19.99 85.009,19.958 C85.33,19.925 85.655,19.892 85.985,19.859 L85.985,17.931 Z M88.545,19.938 C88.177,19.973 87.813,20.007 87.455,20.04 C87.103,20.073 86.756,20.106 86.415,20.138 L86.415,22.085 C86.756,22.068 87.103,22.05 87.455,22.033 C87.813,22.014 88.177,21.996 88.545,21.978 L88.545,19.938 Z M85.985,20.178 C85.655,20.209 85.33,20.24 85.009,20.27 C84.693,20.299 84.382,20.328 84.074,20.357 L84.074,22.203 C84.382,22.188 84.693,22.172 85.009,22.156 C85.33,22.14 85.655,22.123 85.985,22.107 L85.985,20.178 Z M88.545,22.325 C88.177,22.341 87.813,22.356 87.455,22.372 C87.103,22.387 86.756,22.402 86.415,22.417 L86.415,24.363 L87.455,24.363 L88.545,24.363 L88.545,22.325 Z M85.985,22.435 C85.655,22.45 85.33,22.464 85.009,22.477 C84.693,22.491 84.382,22.505 84.074,22.518 L84.074,24.363 L85.009,24.363 L85.985,24.363 L85.985,22.435 Z M88.545,15.173 C88.177,15.245 87.813,15.316 87.455,15.385 C87.103,15.454 86.756,15.522 86.415,15.588 L86.415,17.537 C86.756,17.485 87.103,17.433 87.455,17.379 C87.813,17.325 88.177,17.27 88.545,17.215 L88.545,15.173 Z M78.37,16.172 L80.267,16.511 L80.267,18.207 L81.158,18.091 L81.158,11.572 L79.313,11.233 L78.378,11.541 L78.37,16.172 Z M100.993,14.085 L103.804,13.245 L103.804,7.089 L100.993,5.019 L100.993,14.085 Z M97.935,8.045 L97.935,8.838 C98.076,8.776 98.218,8.713 98.362,8.65 L98.362,7.847 C98.218,7.913 98.076,7.979 97.935,8.045 Z M97.433,9.191 L97.433,9.97 C97.569,9.914 97.707,9.857 97.845,9.8 L97.845,9.011 C97.707,9.072 97.569,9.132 97.433,9.191 Z M97.935,8.972 L97.935,9.764 C98.076,9.706 98.218,9.647 98.362,9.589 L98.362,8.787 C98.218,8.849 98.076,8.911 97.935,8.972 Z M97.433,10.099 L97.433,10.876 C97.569,10.824 97.707,10.771 97.845,10.718 L97.845,9.931 C97.707,9.987 97.569,10.043 97.433,10.099 Z M97.935,9.894 L97.935,10.684 C98.076,10.63 98.218,10.576 98.362,10.521 L98.362,9.721 C98.218,9.779 98.076,9.837 97.935,9.894 Z M97.433,11.009 L97.433,11.787 C97.569,11.739 97.707,11.691 97.845,11.642 L97.845,10.853 C97.707,10.905 97.569,10.957 97.433,11.009 Z M97.935,10.819 L97.935,11.611 C98.076,11.561 98.218,11.511 98.362,11.46 L98.362,10.658 C98.218,10.713 98.076,10.766 97.935,10.819 Z M98.995,7.552 C98.995,7.826 98.995,8.1 98.996,8.371 C99.146,8.305 99.298,8.238 99.452,8.171 L99.452,7.34 C99.298,7.411 99.146,7.482 98.995,7.552 Z M98.459,8.744 L98.459,9.549 C98.604,9.489 98.751,9.429 98.9,9.368 L98.9,8.552 C98.751,8.617 98.604,8.681 98.459,8.744 Z M98.996,8.511 L98.996,9.328 C99.146,9.267 99.298,9.204 99.452,9.141 L99.452,8.312 C99.298,8.379 99.146,8.445 98.996,8.511 Z M98.459,9.682 L98.459,10.484 C98.604,10.429 98.751,10.373 98.9,10.316 L98.9,9.502 C98.751,9.563 98.604,9.622 98.459,9.682 Z M98.996,9.464 L98.996,10.28 C99.146,10.222 99.298,10.164 99.452,10.106 L99.452,9.278 C99.298,9.34 99.146,9.402 98.996,9.464 Z M98.459,10.622 L98.459,11.426 C98.604,11.375 98.751,11.323 98.9,11.271 L98.9,10.455 C98.751,10.511 98.604,10.567 98.459,10.622 Z M98.996,10.419 L98.996,11.237 C99.146,11.184 99.298,11.131 99.452,11.076 L99.452,10.247 C99.298,10.305 99.146,10.363 98.996,10.419 Z M97.935,11.751 L97.935,12.541 C98.076,12.496 98.218,12.45 98.362,12.404 L98.362,11.603 C98.218,11.653 98.076,11.702 97.935,11.751 Z M97.433,12.836 L97.433,13.615 C97.569,13.575 97.707,13.534 97.845,13.494 L97.845,12.705 C97.707,12.749 97.569,12.793 97.433,12.836 Z M97.935,12.676 L97.935,13.467 C98.076,13.426 98.218,13.384 98.362,13.342 L98.362,12.54 C98.218,12.586 98.076,12.631 97.935,12.676 Z M97.433,13.743 L97.433,14.522 C97.569,14.486 97.707,14.449 97.845,14.413 L97.845,13.624 C97.707,13.664 97.569,13.704 97.433,13.743 Z M97.935,13.598 L97.935,14.389 C98.076,14.352 98.218,14.315 98.362,14.277 L98.362,13.475 C98.218,13.516 98.076,13.557 97.935,13.598 Z M97.433,14.653 L97.433,15.432 C97.569,15.4 97.707,15.368 97.845,15.335 L97.845,14.546 C97.707,14.582 97.569,14.618 97.433,14.653 Z M97.935,14.523 L97.935,15.314 C98.076,15.281 98.218,15.248 98.362,15.214 L98.362,14.412 C98.218,14.449 98.076,14.486 97.935,14.523 Z M97.433,11.926 L97.433,12.703 C97.569,12.659 97.707,12.615 97.845,12.57 L97.845,11.782 C97.707,11.831 97.569,11.879 97.433,11.926 Z M98.996,11.383 L98.996,12.199 C99.146,12.151 99.298,12.101 99.452,12.052 L99.452,11.224 C99.298,11.278 99.146,11.331 98.996,11.383 Z M98.459,12.509 L98.459,13.314 C98.604,13.271 98.751,13.228 98.9,13.184 L98.9,12.369 C98.751,12.416 98.604,12.463 98.459,12.509 Z M98.996,12.339 L98.996,13.157 C99.146,13.112 99.298,13.068 99.452,13.023 L99.452,12.194 C99.298,12.242 99.146,12.291 98.996,12.339 Z M98.459,13.447 L98.459,14.251 C98.604,14.213 98.751,14.174 98.9,14.135 L98.9,13.319 C98.751,13.362 98.604,13.404 98.459,13.447 Z M98.996,13.292 L98.996,14.109 C99.146,14.069 99.298,14.029 99.452,13.989 L99.452,13.16 C99.298,13.204 99.146,13.248 98.996,13.292 Z M98.459,14.387 L98.459,15.191 C98.604,15.157 98.751,15.123 98.9,15.088 L98.9,14.272 C98.751,14.311 98.604,14.349 98.459,14.387 Z M98.996,14.247 L98.996,15.065 C99.146,15.03 99.298,14.994 99.452,14.958 L99.452,14.129 C99.298,14.169 99.146,14.208 98.996,14.247 Z M98.459,11.569 L98.459,12.372 C98.604,12.325 98.751,12.278 98.9,12.23 L98.9,11.416 C98.751,11.467 98.604,11.519 98.459,11.569 Z M98.459,7.801 L98.459,8.607 C98.604,8.543 98.751,8.478 98.9,8.413 L98.9,7.596 C98.751,7.665 98.604,7.734 98.459,7.801 Z M97.935,15.459 L97.935,16.251 C98.076,16.222 98.218,16.193 98.362,16.163 L98.362,15.361 C98.218,15.394 98.076,15.427 97.935,15.459 Z M97.433,16.485 L97.433,17.264 C97.569,17.24 97.707,17.216 97.845,17.191 L97.845,16.402 C97.707,16.43 97.569,16.458 97.433,16.485 Z M97.935,16.384 L97.935,17.175 C98.076,17.151 98.218,17.126 98.362,17.101 L98.362,16.299 C98.218,16.327 98.076,16.356 97.935,16.384 Z M97.433,17.392 L97.433,18.171 C97.569,18.151 97.707,18.131 97.845,18.11 L97.845,17.322 C97.707,17.345 97.569,17.369 97.433,17.392 Z M97.935,17.306 L97.935,18.097 C98.076,18.077 98.218,18.056 98.362,18.035 L98.362,17.233 C98.218,17.258 98.076,17.282 97.935,17.306 Z M97.433,18.304 L97.433,19.081 C97.569,19.065 97.707,19.049 97.845,19.033 L97.845,18.245 C97.707,18.265 97.569,18.285 97.433,18.304 Z M97.935,18.232 L97.935,19.022 C98.076,19.006 98.218,18.989 98.362,18.972 L98.362,18.172 C98.218,18.192 98.076,18.212 97.935,18.232 Z M98.996,15.216 L98.996,16.033 C99.146,16.002 99.298,15.971 99.452,15.94 L99.452,15.11 C99.298,15.146 99.146,15.181 98.996,15.216 Z M98.459,16.279 L98.459,17.083 C98.604,17.058 98.751,17.032 98.9,17.006 L98.9,16.191 C98.751,16.22 98.604,16.25 98.459,16.279 Z M98.996,16.171 L98.996,16.989 C99.146,16.963 99.298,16.936 99.452,16.909 L99.452,16.08 C99.298,16.111 99.146,16.141 98.996,16.171 Z M98.459,17.216 L98.459,18.021 C98.604,17.999 98.751,17.978 98.9,17.956 L98.9,17.141 C98.751,17.166 98.604,17.191 98.459,17.216 Z M98.996,17.124 L98.996,17.942 C99.146,17.92 99.298,17.898 99.452,17.875 L99.452,17.046 C99.298,17.072 99.146,17.098 98.996,17.124 Z M98.459,18.158 L98.459,18.961 C98.604,18.944 98.751,18.926 98.9,18.909 L98.9,18.095 C98.751,18.116 98.604,18.137 98.459,18.158 Z M98.996,18.082 L98.996,18.898 C99.146,18.88 99.298,18.862 99.452,18.844 L99.452,18.017 C99.298,18.038 99.146,18.06 98.996,18.082 Z M97.935,19.163 L97.935,19.954 C98.076,19.942 98.218,19.929 98.362,19.917 L98.362,19.115 C98.218,19.131 98.076,19.147 97.935,19.163 Z M97.433,20.131 L97.433,20.908 C97.569,20.901 97.707,20.892 97.845,20.884 L97.845,20.097 C97.707,20.108 97.569,20.12 97.433,20.131 Z M97.935,20.089 L97.935,20.879 C98.076,20.871 98.218,20.862 98.362,20.854 L98.362,20.054 C98.218,20.066 98.076,20.078 97.935,20.089 Z M97.433,21.037 L97.433,21.816 C97.569,21.812 97.707,21.808 97.845,21.804 L97.845,21.014 C97.707,21.022 97.569,21.03 97.433,21.037 Z M97.935,21.01 L97.935,21.801 C98.076,21.797 98.218,21.793 98.362,21.788 L98.362,20.987 C98.218,20.994 98.076,21.002 97.935,21.01 Z M97.433,21.949 L97.433,22.724 L97.845,22.724 L97.845,21.938 C97.707,21.942 97.569,21.945 97.433,21.949 Z M97.935,21.936 L97.935,22.724 L98.362,22.724 L98.362,21.926 C98.218,21.929 98.076,21.933 97.935,21.936 Z M97.433,19.22 L97.433,19.998 C97.569,19.986 97.707,19.974 97.845,19.962 L97.845,19.173 C97.707,19.189 97.569,19.204 97.433,19.22 Z M98.996,19.044 L98.996,19.861 C99.146,19.848 99.298,19.835 99.452,19.821 L99.452,18.992 C99.298,19.009 99.146,19.027 98.996,19.044 Z M98.459,20.045 L98.459,20.849 C98.604,20.84 98.751,20.831 98.9,20.823 L98.9,20.009 C98.751,20.021 98.604,20.034 98.459,20.045 Z M98.996,20.001 L98.996,20.817 C99.146,20.808 99.298,20.8 99.452,20.791 L99.452,19.963 C99.298,19.976 99.146,19.988 98.996,20.001 Z M98.459,20.981 L98.459,21.786 C98.604,21.781 98.751,21.777 98.9,21.773 L98.9,20.957 C98.751,20.965 98.604,20.973 98.459,20.981 Z M98.996,20.952 L98.996,21.77 C99.146,21.766 99.298,21.761 99.452,21.757 L99.452,20.927 C99.298,20.936 99.146,20.944 98.996,20.952 Z M98.459,21.923 L98.459,22.724 L98.9,22.724 L98.9,21.912 C98.751,21.916 98.604,21.919 98.459,21.923 Z M98.996,21.91 L98.996,22.724 L99.452,22.724 L99.452,21.898 C99.298,21.902 99.146,21.906 98.996,21.91 Z M98.459,19.104 L98.459,19.908 C98.604,19.896 98.751,19.883 98.9,19.87 L98.9,19.054 C98.751,19.071 98.604,19.088 98.459,19.104 Z M98.459,15.339 L98.459,16.143 C98.604,16.113 98.751,16.083 98.9,16.053 L98.9,15.237 C98.751,15.272 98.604,15.305 98.459,15.339 Z M97.433,15.575 L97.433,16.354 C97.569,16.326 97.707,16.297 97.845,16.269 L97.845,15.48 C97.707,15.512 97.569,15.544 97.433,15.575 Z M97.433,8.279 L97.433,9.059 C97.569,8.999 97.707,8.938 97.845,8.877 C97.845,8.615 97.845,8.351 97.846,8.086 C97.707,8.151 97.569,8.215 97.433,8.279 Z M96.533,6.348 L98.932,5.199 L98.922,1.384 L96.533,0.564 L96.533,6.348 Z M123.83,17.156 L125.441,16.668 L125.441,7.51 L124.381,7.15 L123.469,7.532 L123.469,17.219 L123.83,17.156 Z M129.918,23.889 L129.918,24.298 L131.508,24.298 L133.004,24.298 L133.004,23.913 C132.515,23.909 132.017,23.906 131.508,23.901 C130.99,23.897 130.459,23.893 129.918,23.889 Z M129.918,23.269 L129.918,23.68 C130.459,23.686 130.99,23.693 131.508,23.699 C132.017,23.705 132.515,23.711 133.004,23.717 L133.004,23.331 C132.515,23.321 132.017,23.311 131.508,23.301 C130.99,23.291 130.459,23.28 129.918,23.269 Z M129.918,22.649 L129.918,23.059 C130.459,23.072 130.99,23.085 131.508,23.098 C132.017,23.11 132.515,23.122 133.004,23.134 L133.004,22.748 C132.515,22.732 132.017,22.716 131.508,22.7 C130.99,22.683 130.459,22.666 129.918,22.649 Z M129.918,22.029 L129.918,22.44 C130.459,22.46 130.99,22.479 131.508,22.498 C132.017,22.516 132.515,22.534 133.004,22.552 L133.004,22.165 C132.515,22.144 132.017,22.122 131.508,22.099 C130.99,22.076 130.459,22.053 129.918,22.029 Z M129.918,21.408 L129.918,21.819 C130.459,21.846 130.99,21.871 131.508,21.896 C132.017,21.921 132.515,21.945 133.004,21.968 L133.004,21.582 C132.515,21.555 132.017,21.527 131.508,21.498 C130.99,21.469 130.459,21.439 129.918,21.408 Z M129.918,20.788 L129.918,21.2 C130.459,21.233 130.99,21.265 131.508,21.296 C132.017,21.326 132.515,21.357 133.004,21.386 L133.004,20.999 C132.515,20.965 132.017,20.931 131.508,20.897 C130.99,20.861 130.459,20.825 129.918,20.788 Z M129.918,20.168 L129.918,20.579 C130.459,20.619 130.99,20.657 131.508,20.694 C132.017,20.731 132.515,20.767 133.004,20.803 L133.004,20.417 C132.515,20.377 132.017,20.337 131.508,20.296 C130.99,20.255 130.459,20.212 129.918,20.168 Z M129.918,19.548 L129.918,19.96 C130.459,20.006 130.99,20.05 131.508,20.094 C132.017,20.137 132.515,20.179 133.004,20.221 L133.004,19.833 C132.515,19.788 132.017,19.742 131.508,19.695 C130.99,19.647 130.459,19.598 129.918,19.548 Z M129.918,18.928 L129.918,19.339 C130.459,19.392 130.99,19.443 131.508,19.493 C132.017,19.542 132.515,19.59 133.004,19.637 L133.004,19.251 C132.515,19.2 132.017,19.148 131.508,19.095 C130.99,19.041 130.459,18.985 129.918,18.928 Z M129.918,18.308 L129.918,18.719 C130.459,18.777 130.99,18.835 131.508,18.891 C132.017,18.947 132.515,19.001 133.004,19.054 L133.004,18.668 C132.515,18.611 132.017,18.552 131.508,18.493 C130.99,18.433 130.459,18.371 129.918,18.308 Z M129.918,17.688 L129.918,18.099 C130.459,18.165 130.99,18.229 131.508,18.291 C132.017,18.352 132.515,18.413 133.004,18.472 L133.004,18.085 C132.515,18.023 132.017,17.958 131.508,17.893 C130.99,17.826 130.459,17.758 129.918,17.688 Z M129.918,17.068 L129.918,17.479 C130.459,17.55 130.99,17.621 131.508,17.69 C132.017,17.757 132.515,17.823 133.004,17.888 L133.004,17.502 C132.515,17.433 132.017,17.363 131.508,17.292 C130.99,17.219 130.459,17.144 129.918,17.068 Z M129.918,16.447 L129.918,16.859 C130.459,16.938 130.99,17.014 131.508,17.09 C132.017,17.163 132.515,17.235 133.004,17.306 L133.004,16.919 C132.515,16.844 132.017,16.768 131.508,16.69 C130.99,16.611 130.459,16.53 129.918,16.447 Z M129.918,15.828 L129.918,16.239 C130.459,16.323 130.99,16.407 131.508,16.488 C132.017,16.568 132.515,16.646 133.004,16.723 L133.004,16.337 C132.515,16.256 132.017,16.174 131.508,16.09 C130.99,16.004 130.459,15.917 129.918,15.828 Z M129.918,15.207 L129.918,15.619 C130.459,15.711 130.99,15.8 131.508,15.888 C132.017,15.974 132.515,16.058 133.004,16.141 L133.004,15.753 C132.515,15.667 132.017,15.578 131.508,15.489 C130.99,15.397 130.459,15.303 129.918,15.207 Z M129.918,14.588 L129.918,14.999 C130.459,15.097 130.99,15.192 131.508,15.286 C132.017,15.378 132.515,15.469 133.004,15.557 L133.004,15.171 C132.515,15.079 132.017,14.984 131.508,14.888 C130.99,14.79 130.459,14.69 129.918,14.588 Z M129.918,13.967 L129.918,14.378 C130.459,14.482 130.99,14.585 131.508,14.685 C132.017,14.783 132.515,14.88 133.004,14.974 L133.004,14.588 C132.515,14.489 132.017,14.389 131.508,14.287 C130.99,14.182 130.459,14.076 129.918,13.967 Z M129.918,13.347 L129.918,13.758 C130.459,13.869 130.99,13.978 131.508,14.085 C132.017,14.189 132.515,14.291 133.004,14.392 L133.004,14.005 C132.515,13.901 132.017,13.795 131.508,13.687 C130.99,13.576 130.459,13.463 129.918,13.347 Z M129.918,12.105 L129.918,12.518 C130.459,12.643 130.99,12.764 131.508,12.883 C132.017,13 132.515,13.114 133.004,13.226 L133.004,12.838 C132.515,12.722 132.017,12.603 131.508,12.483 C130.99,12.359 130.459,12.234 129.918,12.105 Z M129.918,12.727 L129.918,13.138 C130.459,13.255 130.99,13.371 131.508,13.483 C132.017,13.594 132.515,13.702 133.004,13.808 L133.004,13.422 C132.515,13.312 132.017,13.2 131.508,13.085 C130.99,12.968 130.459,12.849 129.918,12.727 Z M127.261,18.558 L127.261,19.096 C127.449,19.118 127.635,19.139 127.82,19.161 L127.82,18.63 C127.635,18.606 127.449,18.582 127.261,18.558 Z M126.564,19.109 L126.564,19.655 C126.757,19.675 126.949,19.694 127.14,19.714 L127.14,19.175 C126.949,19.153 126.757,19.131 126.564,19.109 Z M127.261,19.188 L127.261,19.726 C127.449,19.745 127.635,19.764 127.82,19.783 L127.82,19.252 C127.635,19.231 127.449,19.21 127.261,19.188 Z M126.564,19.745 L126.564,20.291 C126.757,20.308 126.949,20.325 127.14,20.342 L127.14,19.802 C126.949,19.784 126.757,19.764 126.564,19.745 Z M127.261,19.815 L127.261,20.352 C127.449,20.368 127.635,20.385 127.82,20.401 L127.82,19.87 C127.635,19.852 127.449,19.833 127.261,19.815 Z M126.564,20.384 L126.564,20.931 C126.757,20.945 126.949,20.958 127.14,20.972 L127.14,20.433 C126.949,20.417 126.757,20.401 126.564,20.384 Z M127.261,20.443 L127.261,20.981 C127.449,20.995 127.635,21.008 127.82,21.022 L127.82,20.491 C127.635,20.475 127.449,20.459 127.261,20.443 Z M128.598,18.729 L128.598,19.251 C128.775,19.271 128.95,19.292 129.124,19.312 L129.124,18.797 C128.95,18.774 128.775,18.752 128.598,18.729 Z M127.943,19.266 L127.943,19.795 C128.125,19.813 128.306,19.832 128.484,19.85 L128.484,19.327 C128.306,19.307 128.125,19.286 127.943,19.266 Z M128.598,19.34 L128.598,19.861 C128.775,19.879 128.95,19.897 129.124,19.914 L129.124,19.4 C128.95,19.38 128.775,19.36 128.598,19.34 Z M127.943,19.882 L127.943,20.411 C128.125,20.427 128.306,20.443 128.484,20.458 L128.484,19.936 C128.306,19.918 128.125,19.9 127.943,19.882 Z M128.598,19.947 L128.598,20.468 C128.775,20.484 128.95,20.499 129.124,20.514 L129.124,19.999 C128.95,19.982 128.775,19.965 128.598,19.947 Z M127.943,20.501 L127.943,21.03 C128.125,21.044 128.306,21.057 128.484,21.07 L128.484,20.547 C128.306,20.532 128.125,20.517 127.943,20.501 Z M128.598,20.557 L128.598,21.078 C128.775,21.091 128.95,21.103 129.124,21.116 L129.124,20.601 C128.95,20.587 128.775,20.572 128.598,20.557 Z M127.261,21.077 L127.261,21.615 C127.449,21.625 127.635,21.636 127.82,21.647 L127.82,21.116 C127.635,21.103 127.449,21.09 127.261,21.077 Z M126.564,21.667 L126.564,22.213 C126.757,22.222 126.949,22.23 127.14,22.238 L127.14,21.699 C126.949,21.689 126.757,21.678 126.564,21.667 Z M127.261,21.706 L127.261,22.244 C127.449,22.252 127.635,22.26 127.82,22.268 L127.82,21.737 C127.635,21.727 127.449,21.717 127.261,21.706 Z M126.564,22.303 L126.564,22.849 C126.757,22.855 126.949,22.861 127.14,22.866 L127.14,22.327 C126.949,22.319 126.757,22.311 126.564,22.303 Z M127.261,22.332 L127.261,22.87 C127.449,22.875 127.635,22.881 127.82,22.886 L127.82,22.355 C127.635,22.348 127.449,22.34 127.261,22.332 Z M126.564,22.943 L126.564,23.489 C126.757,23.491 126.949,23.494 127.14,23.497 L127.14,22.959 C126.949,22.953 126.757,22.948 126.564,22.943 Z M127.261,22.962 L127.261,23.499 C127.449,23.501 127.635,23.504 127.82,23.507 L127.82,22.977 C127.635,22.972 127.449,22.967 127.261,22.962 Z M126.564,21.028 L126.564,21.574 C126.757,21.585 126.949,21.597 127.14,21.608 L127.14,21.069 C126.949,21.055 126.757,21.042 126.564,21.028 Z M128.598,21.171 L128.598,21.692 C128.775,21.702 128.95,21.712 129.124,21.722 L129.124,21.208 C128.95,21.196 128.775,21.183 128.598,21.171 Z M127.943,21.744 L127.943,22.273 C128.125,22.281 128.306,22.289 128.484,22.297 L128.484,21.774 C128.306,21.764 128.125,21.754 127.943,21.744 Z M128.598,21.781 L128.598,22.302 C128.775,22.309 128.95,22.317 129.124,22.325 L129.124,21.81 C128.95,21.8 128.775,21.79 128.598,21.781 Z M127.943,22.361 L127.943,22.89 C128.125,22.895 128.306,22.9 128.484,22.906 L128.484,22.383 C128.306,22.375 128.125,22.368 127.943,22.361 Z M128.598,22.388 L128.598,22.909 C128.775,22.914 128.95,22.919 129.124,22.924 L129.124,22.409 C128.95,22.402 128.775,22.395 128.598,22.388 Z M127.943,22.98 L127.943,23.509 C128.125,23.511 128.306,23.514 128.484,23.517 L128.484,22.995 C128.306,22.99 128.125,22.985 127.943,22.98 Z M128.598,22.998 L128.598,23.518 C128.775,23.521 128.95,23.524 129.124,23.526 L129.124,23.012 C128.95,23.007 128.775,23.003 128.598,22.998 Z M127.943,21.125 L127.943,21.654 C128.125,21.665 128.306,21.675 128.484,21.685 L128.484,21.163 C128.306,21.15 128.125,21.138 127.943,21.125 Z M127.943,18.646 L127.943,19.175 C128.125,19.196 128.306,19.217 128.484,19.238 L128.484,18.715 C128.306,18.692 128.125,18.669 127.943,18.646 Z M127.261,23.598 L127.261,24.135 L127.82,24.135 L127.82,23.605 C127.635,23.603 127.449,23.601 127.261,23.598 Z M128.598,23.614 L128.598,24.135 L129.124,24.135 L129.124,23.621 C128.95,23.619 128.775,23.617 128.598,23.614 Z M127.943,23.607 L127.943,24.135 L128.484,24.135 L128.484,23.613 C128.306,23.611 128.125,23.609 127.943,23.607 Z M126.564,23.59 L126.564,24.135 L127.14,24.135 L127.14,23.597 C126.949,23.594 126.757,23.592 126.564,23.59 Z M126.564,18.469 L126.564,19.016 C126.757,19.038 126.949,19.06 127.14,19.082 L127.14,18.543 C126.949,18.518 126.757,18.494 126.564,18.469 Z M134.119,19.304 L134.119,19.779 C134.277,19.799 134.434,19.818 134.589,19.837 L134.589,19.368 C134.434,19.347 134.277,19.325 134.119,19.304 Z M133.533,19.79 L133.533,20.272 C133.696,20.29 133.858,20.307 134.018,20.324 L134.018,19.848 C133.858,19.829 133.696,19.81 133.533,19.79 Z M134.119,19.86 L134.119,20.335 C134.277,20.352 134.434,20.368 134.589,20.385 L134.589,19.917 C134.434,19.898 134.277,19.879 134.119,19.86 Z M133.533,20.352 L133.533,20.834 C133.696,20.849 133.858,20.864 134.018,20.878 L134.018,20.403 C133.858,20.386 133.696,20.369 133.533,20.352 Z M134.119,20.413 L134.119,20.888 C134.277,20.902 134.434,20.917 134.589,20.931 L134.589,20.463 C134.434,20.446 134.277,20.43 134.119,20.413 Z M133.533,20.916 L133.533,21.398 C133.696,21.411 133.858,21.423 134.018,21.435 L134.018,20.96 C133.858,20.945 133.696,20.931 133.533,20.916 Z M134.119,20.969 L134.119,21.443 C134.277,21.455 134.434,21.467 134.589,21.479 L134.589,21.011 C134.434,20.997 134.277,20.983 134.119,20.969 Z M135.243,19.456 L135.243,19.916 C135.391,19.935 135.538,19.952 135.684,19.97 L135.684,19.516 C135.538,19.496 135.391,19.476 135.243,19.456 Z M134.693,19.929 L134.693,20.396 C134.846,20.413 134.997,20.429 135.148,20.445 L135.148,19.984 C134.997,19.966 134.846,19.947 134.693,19.929 Z M135.243,19.995 L135.243,20.455 C135.391,20.471 135.538,20.486 135.684,20.502 L135.684,20.048 C135.538,20.031 135.391,20.013 135.243,19.995 Z M134.693,20.473 L134.693,20.94 C134.846,20.954 134.997,20.968 135.148,20.982 L135.148,20.521 C134.997,20.505 134.846,20.489 134.693,20.473 Z M135.243,20.531 L135.243,20.991 C135.391,21.004 135.538,21.018 135.684,21.031 L135.684,20.577 C135.538,20.562 135.391,20.546 135.243,20.531 Z M134.693,21.02 L134.693,21.487 C134.846,21.499 134.997,21.51 135.148,21.522 L135.148,21.061 C134.997,21.047 134.846,21.034 134.693,21.02 Z M135.243,21.069 L135.243,21.529 C135.391,21.541 135.538,21.552 135.684,21.563 L135.684,21.109 C135.538,21.096 135.391,21.082 135.243,21.069 Z M134.119,21.528 L134.119,22.003 C134.277,22.012 134.434,22.022 134.589,22.031 L134.589,21.563 C134.434,21.551 134.277,21.54 134.119,21.528 Z M133.533,22.049 L133.533,22.531 C133.696,22.539 133.858,22.546 134.018,22.553 L134.018,22.077 C133.858,22.068 133.696,22.058 133.533,22.049 Z M134.119,22.083 L134.119,22.558 C134.277,22.565 134.434,22.572 134.589,22.579 L134.589,22.111 C134.434,22.102 134.277,22.093 134.119,22.083 Z M133.533,22.61 L133.533,23.093 C133.696,23.098 133.858,23.103 134.018,23.108 L134.018,22.632 C133.858,22.625 133.696,22.618 133.533,22.61 Z M134.119,22.636 L134.119,23.111 C134.277,23.116 134.434,23.121 134.589,23.125 L134.589,22.657 C134.434,22.65 134.277,22.643 134.119,22.636 Z M133.533,23.175 L133.533,23.657 C133.696,23.66 133.858,23.662 134.018,23.664 L134.018,23.189 C133.858,23.185 133.696,23.18 133.533,23.175 Z M134.119,23.192 L134.119,23.666 C134.277,23.669 134.434,23.671 134.589,23.673 L134.589,23.205 C134.434,23.201 134.277,23.196 134.119,23.192 Z M133.533,21.485 L133.533,21.967 C133.696,21.977 133.858,21.986 134.018,21.996 L134.018,21.52 C133.858,21.508 133.696,21.497 133.533,21.485 Z M135.243,21.611 L135.243,22.071 C135.391,22.08 135.538,22.089 135.684,22.098 L135.684,21.644 C135.538,21.633 135.391,21.622 135.243,21.611 Z M134.693,22.117 L134.693,22.584 C134.846,22.591 134.997,22.598 135.148,22.605 L135.148,22.144 C134.997,22.135 134.846,22.126 134.693,22.117 Z M135.243,22.149 L135.243,22.609 C135.391,22.616 135.538,22.623 135.684,22.63 L135.684,22.175 C135.538,22.167 135.391,22.158 135.243,22.149 Z M134.693,22.661 L134.693,23.128 C134.846,23.133 134.997,23.138 135.148,23.142 L135.148,22.681 C134.997,22.674 134.846,22.668 134.693,22.661 Z M135.243,22.685 L135.243,23.145 C135.391,23.15 135.538,23.154 135.684,23.159 L135.684,22.704 C135.538,22.698 135.391,22.692 135.243,22.685 Z M134.693,23.208 L134.693,23.675 C134.846,23.677 134.997,23.68 135.148,23.682 L135.148,23.221 C134.997,23.217 134.846,23.212 134.693,23.208 Z M135.243,23.224 L135.243,23.683 C135.391,23.686 135.538,23.688 135.684,23.69 L135.684,23.236 C135.538,23.232 135.391,23.228 135.243,23.224 Z M134.693,21.57 L134.693,22.038 C134.846,22.047 134.997,22.056 135.148,22.065 L135.148,21.604 C134.997,21.593 134.846,21.582 134.693,21.57 Z M134.693,19.382 L134.693,19.849 C134.846,19.868 134.997,19.886 135.147,19.905 L135.147,19.443 C134.997,19.423 134.846,19.402 134.693,19.382 Z M134.119,23.754 L134.119,24.227 L134.589,24.227 L134.589,23.76 C134.434,23.758 134.277,23.756 134.119,23.754 Z M135.243,23.768 L135.243,24.227 L135.684,24.227 L135.684,23.774 C135.538,23.772 135.391,23.77 135.243,23.768 Z M134.693,23.761 L134.693,24.227 L135.148,24.227 L135.148,23.767 C134.997,23.765 134.846,23.763 134.693,23.761 Z M133.533,23.746 L133.533,24.227 L134.018,24.227 L134.018,23.752 C133.858,23.75 133.696,23.748 133.533,23.746 Z M133.533,19.225 L133.533,19.708 C133.696,19.727 133.858,19.747 134.018,19.767 L134.018,19.29 C133.858,19.269 133.696,19.247 133.533,19.225 Z M126.101,24.994 L136.167,24.994 L136.167,18.961 L133.833,18.635 L133.66,18.611 L133.66,12.386 L129.091,11.225 L129.091,18.075 L128.861,18.039 L126.101,17.658 L126.101,24.994 Z M101.376,16.321 C102.082,16.163 102.821,15.998 103.592,15.826 L105.909,15.308 L105.909,14.892 L103.592,15.436 C102.821,15.618 102.082,15.791 101.376,15.957 L101.376,15.238 C102.082,15.056 102.821,14.866 103.592,14.667 L105.909,14.072 L105.909,13.222 L108.72,14.423 L108.72,24.994 L109.093,24.994 L109.093,15.859 L112.461,14.058 L112.461,24.994 L112.85,24.994 L112.85,14.058 L117.739,15.22 L117.739,24.994 L118.14,24.994 L118.14,14.904 L115.407,14.254 L115.407,8.692 L119.589,5.532 L119.589,24.994 L120.192,24.994 L120.192,5.532 L123.008,6.721 L123.008,24.994 L123.524,24.994 L123.524,17.849 L125.785,17.027 L126.399,17.116 L126.399,11.947 L128.691,10.844 L128.873,10.756 L128.891,10.748 L128.891,10.761 L128.94,10.773 L133.909,12.037 L134.061,12.075 L134.061,18.263 L136.395,18.589 L136.568,18.613 L136.568,24.994 L140.327,24.994 L140.327,26.038 L63.596,26.038 L63.596,24.994 L69.206,24.994 L69.206,13.801 L72.753,11.59 L72.753,24.994 L73.145,24.994 L73.145,11.59 L75.532,12.422 L75.532,13.077 L74.877,12.873 C74.445,12.738 74.003,12.6 73.551,12.458 L73.551,12.864 C74.003,13.001 74.445,13.134 74.877,13.265 L75.532,13.462 L75.532,13.657 L74.877,13.462 C74.445,13.334 74.003,13.203 73.551,13.069 L73.551,13.472 C74.003,13.602 74.445,13.728 74.877,13.852 L75.532,14.039 L75.532,14.235 L74.877,14.051 C74.445,13.93 74.003,13.806 73.551,13.678 L73.551,14.082 C74.003,14.204 74.445,14.324 74.877,14.44 L75.532,14.617 L75.532,14.811 L74.877,14.638 C74.445,14.524 74.003,14.407 73.551,14.287 L73.551,14.69 C74.003,14.805 74.445,14.918 74.877,15.027 L75.532,15.194 L75.532,15.389 L74.877,15.226 C74.445,15.119 74.003,15.009 73.551,14.896 L73.551,15.3 C74.003,15.408 74.445,15.513 74.877,15.616 L75.532,15.772 L75.532,15.966 L74.877,15.814 C74.445,15.713 74.003,15.61 73.551,15.504 L73.551,15.909 C74.003,16.01 74.445,16.108 74.877,16.204 L75.532,16.35 L75.532,16.544 L74.877,16.402 C74.445,16.308 74.003,16.212 73.551,16.114 L73.551,16.517 C74.003,16.611 74.445,16.702 74.877,16.792 L75.532,16.927 L75.532,17.121 L74.877,16.989 C74.445,16.902 74.003,16.813 73.551,16.722 L73.551,17.127 C74.003,17.213 74.445,17.298 74.877,17.38 L75.031,17.409 L77.16,16.593 L77.16,24.994 L77.552,24.994 L77.552,16.593 L79.939,17.104 L79.939,17.448 L79.546,17.37 C79.059,17.273 78.557,17.174 78.042,17.071 L78.042,17.453 C78.557,17.55 79.059,17.645 79.546,17.737 L79.939,17.811 L79.939,17.994 L79.546,17.923 C79.059,17.833 78.557,17.741 78.042,17.647 L78.042,18.028 C78.557,18.118 79.059,18.204 79.546,18.288 L79.939,18.356 L79.939,18.54 L79.546,18.474 C79.059,18.392 78.557,18.308 78.042,18.222 L78.042,18.604 C78.557,18.685 79.059,18.763 79.546,18.84 L79.601,18.848 L81.19,18.647 L81.19,24.832 L81.118,24.994 L81.566,24.994 L81.566,9.451 L85.135,7.653 L85.135,15.284 L85.58,15.191 L85.58,7.653 L88.075,9.451 L88.075,12.405 L86.853,12.751 L86.853,14.927 L88.972,14.487 L88.972,24.994 L89.629,24.994 L89.629,14.487 L93.006,15.491 L93.006,2.781 L95.937,0.445 L95.937,1.44 L94.915,2.119 C94.469,2.415 94.035,2.704 93.613,2.985 L93.613,3.699 C94.035,3.427 94.469,3.149 94.915,2.863 L95.937,2.206 L95.937,2.593 L94.915,3.238 C94.469,3.519 94.035,3.792 93.613,4.059 L93.613,4.769 C94.035,4.512 94.469,4.248 94.915,3.977 L95.937,3.355 L95.937,3.743 L94.915,4.354 C94.469,4.62 94.035,4.879 93.613,5.131 L93.613,5.841 C94.035,5.598 94.469,5.349 94.915,5.093 L95.937,4.506 L95.937,4.892 L94.915,5.468 C94.469,5.719 94.035,5.963 93.613,6.201 L93.613,6.911 C94.035,6.683 94.469,6.448 94.915,6.207 L95.937,5.654 L95.937,6.043 L94.915,6.584 C94.469,6.82 94.035,7.05 93.613,7.273 L93.613,7.983 C94.035,7.769 94.469,7.549 94.915,7.323 L95.937,6.805 L95.937,7.191 L94.915,7.698 C94.469,7.919 94.035,8.134 93.613,8.344 L93.613,9.056 C94.035,8.855 94.469,8.65 94.915,8.439 L95.937,7.956 L95.937,8.342 L94.915,8.814 C94.469,9.02 94.035,9.221 93.613,9.416 L93.613,10.125 C94.035,9.94 94.469,9.749 94.915,9.553 L95.937,9.104 L95.937,9.491 L94.915,9.928 C94.469,10.119 94.035,10.305 93.613,10.486 L93.613,11.198 C94.035,11.026 94.469,10.85 94.915,10.669 L95.937,10.255 L95.937,10.642 L94.915,11.045 C94.469,11.22 94.035,11.391 93.613,11.558 L93.613,12.268 C94.035,12.111 94.469,11.949 94.915,11.784 L95.937,11.404 L95.937,11.792 L94.915,12.161 C94.469,12.321 94.035,12.478 93.613,12.63 L93.613,13.34 C94.035,13.197 94.469,13.051 94.915,12.9 L95.937,12.554 L95.937,12.941 L94.915,13.275 C94.469,13.42 94.035,13.562 93.613,13.7 L93.613,14.41 C94.035,14.281 94.469,14.149 94.915,14.014 L95.937,13.703 L95.937,14.092 L94.915,14.391 C94.469,14.521 94.035,14.649 93.613,14.772 L93.613,15.482 C94.035,15.368 94.469,15.251 94.915,15.13 L95.937,14.854 L95.937,15.24 L94.915,15.505 C94.469,15.62 94.035,15.733 93.613,15.842 L93.613,16.554 C94.035,16.454 94.469,16.352 94.915,16.246 L95.937,16.005 L95.937,16.391 L94.915,16.621 C94.469,16.722 94.035,16.819 93.613,16.914 L93.613,17.624 C94.035,17.539 94.469,17.451 94.915,17.36 L95.937,17.153 L95.937,17.54 L94.915,17.735 C94.469,17.821 94.035,17.904 93.613,17.985 L93.613,18.697 C94.035,18.625 94.469,18.552 94.915,18.477 L95.937,18.304 L95.937,18.691 L94.915,18.852 C94.469,18.922 94.035,18.99 93.613,19.057 L93.613,19.767 C94.035,19.709 94.469,19.651 94.915,19.591 L95.937,19.452 L95.937,19.841 L94.915,19.968 C94.469,20.023 94.035,20.077 93.613,20.129 L93.613,20.839 C94.035,20.796 94.469,20.752 94.915,20.707 L95.937,20.603 L95.937,20.99 L94.915,21.082 C94.469,21.122 94.035,21.161 93.613,21.199 L93.613,21.909 C94.035,21.88 94.469,21.851 94.915,21.821 L95.937,21.752 L95.937,22.141 L94.915,22.198 C94.469,22.223 94.035,22.247 93.613,22.271 L93.613,22.981 C94.035,22.967 94.469,22.952 94.915,22.937 L95.937,22.903 L95.937,23.289 L94.915,23.312 C94.469,23.322 94.035,23.332 93.613,23.341 L93.613,24.049 L94.915,24.049 L95.937,24.049 L95.937,24.994 L96.469,24.994 L96.469,7.089 L100.492,5.019 L100.492,24.994 L105.909,24.994 L105.909,23.535 L103.592,23.535 L101.376,23.535 L101.376,22.818 C102.082,22.802 102.821,22.786 103.592,22.769 L105.909,22.717 L105.909,22.302 L103.592,22.379 C102.821,22.405 102.082,22.43 101.376,22.454 L101.376,21.735 C102.082,21.696 102.821,21.654 103.592,21.611 L105.909,21.482 L105.909,21.066 L103.592,21.222 C102.821,21.274 102.082,21.323 101.376,21.371 L101.376,20.652 C102.082,20.589 102.821,20.523 103.592,20.454 L105.909,20.247 L105.909,19.832 L103.592,20.065 C102.821,20.143 102.082,20.217 101.376,20.288 L101.376,19.569 C102.082,19.483 102.821,19.392 103.592,19.297 L105.909,19.012 L105.909,18.597 L103.592,18.908 C102.821,19.011 102.082,19.11 101.376,19.205 L101.376,18.487 C102.082,18.376 102.821,18.261 103.592,18.14 L105.909,17.778 L105.909,17.362 L103.592,17.751 C102.821,17.88 102.082,18.004 101.376,18.122 L101.376,17.404 C102.082,17.27 102.821,17.129 103.592,16.983 L105.909,16.543 L105.909,16.127 L103.592,16.593 C102.821,16.749 102.082,16.898 101.376,17.04 L101.376,16.321 L101.376,16.321 Z" id="Fill-17"></path>
        </g>
    </g>
</svg>